<svg xmlns="http://www.w3.org/2000/svg" viewBox="0 0 600.4141 237.0168">
  <title>humangle-logo-full-colour-rgb</title>
  <g id="full-rgb">
    <g id="logoMark">
      <rect id="logoMark_PathItem_" data-name="logoMark &lt;PathItem&gt;" x="302.4446" y="25.4095" width="18.2859" height="42.2933" style="fill: #22b2d7"/>
      <rect id="logoMark_PathItem_2" data-name="logoMark &lt;PathItem&gt;" x="336.6164" y="12.8114" width="18.2859" height="67.4893" style="fill: #22b2d7"/>
      <rect id="logoMark_PathItem_3" data-name="logoMark &lt;PathItem&gt;" x="370.7881" width="18.2859" height="93.1122" style="fill: #22b2d7"/>
    </g>
    <g id="type">
      <path id="type_CompoundPathItem_" data-name="type &lt;CompoundPathItem&gt;" d="M60.1976,209.7757V169.5136H15.9469v40.2621H0V115.5591H15.9469v38.9374H60.1976V115.5591h16.08v94.2166Z" style="fill: #2c4045"/>
      <path id="type_CompoundPathItem_2" data-name="type &lt;CompoundPathItem&gt;" d="M116.0153,211.6354c-15.4156,0-24.4517-11.4271-24.4517-25.78V145.0619h15.4156v38.004c0,7.9735,3.7193,14.7514,13.021,14.7514,8.9033,0,13.556-5.9809,13.556-14.4857v-38.27h15.4156V197.95a105.3949,105.3949,0,0,0,.6641,11.8255H134.8845a48.1624,48.1624,0,0,1-.5313-7.1764C131.1652,208.4474,123.59,211.6354,116.0153,211.6354Z" style="fill: #2c4045"/>
      <path id="type_CompoundPathItem_3" data-name="type &lt;CompoundPathItem&gt;" d="M163.5939,209.7757V145.0619h14.7515v8.2391c3.7192-6.6451,11.8255-10.1023,19.1348-10.1023,8.5048,0,15.9469,3.8557,19.4,11.4306,5.0512-8.5048,12.6261-11.4306,20.9981-11.4306,11.6927,0,22.8577,7.4421,22.8577,24.5845v41.9925H245.8522V170.3106c0-7.575-3.8557-13.29-12.4933-13.29-8.1062,0-13.4195,6.38-13.4195,14.3529v38.4025H204.79V170.3106c0-7.4422-3.7193-13.29-12.49-13.29-8.2391,0-13.4231,6.1138-13.4231,14.3529v38.4025Z" style="fill: #2c4045"/>
      <path id="type_CompoundPathItem_4" data-name="type &lt;CompoundPathItem&gt;" d="M331.1692,186.121H291.302l-8.7705,23.6547H265.6548l36.6757-94.2166h18.4743l36.6757,94.2166h-17.408Zm-34.2847-14.7478h28.7022l-14.3493-38.5389Z" style="fill: #2c4045"/>
      <path id="type_CompoundPathItem_5" data-name="type &lt;CompoundPathItem&gt;" d="M381.1424,209.7757H365.7268V145.0619h15.0171V153.7c4.2506-7.4421,11.9584-10.5008,19.1349-10.5008,15.814,0,23.389,11.4306,23.389,25.6471v40.93H407.8522v-38.27c0-7.9734-3.5864-14.3529-13.2867-14.3529-8.77,0-13.4231,6.778-13.4231,15.2828Z" style="fill: #2c4045"/>
      <path id="type_CompoundPathItem_6" data-name="type &lt;CompoundPathItem&gt;" d="M448.9185,209.6429c1.0627,7.9734,7.3093,13.9544,16.2126,13.9544,12.2276,0,18.3378-6.2466,18.3378-19.4v-6.778c-2.7894,5.0476-9.3017,9.4346-18.7363,9.4346-17.2752,0-29.8978-13.29-29.8978-31.4953,0-17.2752,12.0913-31.4953,29.8978-31.4953,10.0987,0,16.3454,4.1214,19.1348,9.4382v-8.2391h14.8843v58.6036c0,17.2752-8.9033,33.3513-33.2221,33.3513-17.1424,0-29.1008-10.63-30.8276-23.6511Zm34.9489-34.2848c0-11.0285-7.04-18.205-16.611-18.205-9.8331,0-16.8767,7.1765-16.8767,18.205,0,11.2978,6.7779,18.3379,16.8767,18.3379C477.0931,193.696,483.8674,186.5231,483.8674,175.3581Z" style="fill: #2c4045"/>
      <path id="type_CompoundPathItem_7" data-name="type &lt;CompoundPathItem&gt;" d="M512.3076,209.7757V115.57h15.4156v94.2062Z" style="fill: #2c4045"/>
      <path id="type_CompoundPathItem_8" data-name="type &lt;CompoundPathItem&gt;" d="M599.6171,191.305c-3.4572,11.2943-13.6888,20.4632-29.2372,20.4632-17.5409,0-33.0857-12.7554-33.0857-34.6833,0-20.4631,15.1463-34.0191,31.4917-34.0191,19.9355,0,31.6282,13.1575,31.6282,33.6206a22.8438,22.8438,0,0,1-.3985,4.9184H552.7062A17.3274,17.3274,0,0,0,570.38,198.4815c9.3054,0,14.0873-4.9183,16.2126-11.2942Zm-14.7514-20.9944c-.2657-7.575-5.3133-14.353-15.9469-14.353a15.54,15.54,0,0,0-15.8141,14.353Z" style="fill: #2c4045"/>
    </g>
  </g>
</svg>
